<svg id="Layer_1" data-name="Layer 1" xmlns="http://www.w3.org/2000/svg" xmlns:xlink="http://www.w3.org/1999/xlink" viewBox="0 0 111.29 201.08"><defs><style>.cls-1{fill:#4d4d4d;}.cls-2{fill:url(#linear-gradient);}.cls-3{fill:#333;}.cls-4{fill:url(#radial-gradient);}.cls-5{fill:#ffc8fe;}</style><linearGradient id="linear-gradient" x1="179.16" y1="157.07" x2="159.67" y2="207.7" gradientTransform="translate(81.05 -52.5) rotate(22.62)" gradientUnits="userSpaceOnUse"><stop offset="0" stop-color="gold"/><stop offset="0.08" stop-color="#ffda12"/><stop offset="0.28" stop-color="#ffe13d"/><stop offset="0.48" stop-color="#ffe65f"/><stop offset="0.67" stop-color="#ffea77"/><stop offset="0.85" stop-color="#ffec85"/><stop offset="0.99" stop-color="#ffed8a"/></linearGradient><radialGradient id="radial-gradient" cx="141.62" cy="76.18" r="48.41" gradientTransform="translate(-9.14 17.14) rotate(-7.2)" gradientUnits="userSpaceOnUse"><stop offset="0" stop-color="#4d4d4d"/><stop offset="0.43" stop-color="#4f4f4f"/><stop offset="0.58" stop-color="#565656"/><stop offset="0.69" stop-color="#616161"/><stop offset="0.78" stop-color="#727272"/><stop offset="0.85" stop-color="#888"/><stop offset="0.92" stop-color="#a3a3a3"/><stop offset="0.95" stop-color="#b3b3b3"/></radialGradient></defs><rect class="cls-1" x="131.61" y="112.32" width="39.66" height="30.52" transform="translate(-132.61 40.34) rotate(-22.62)"/><path class="cls-2" d="M170.11,120.7h3.26a19.22,19.22,0,0,1,19.22,19.22v72.84A19.22,19.22,0,0,1,173.37,232h0a22.48,22.48,0,0,1-22.48-22.48V139.92a19.22,19.22,0,0,1,19.22-19.22Z" transform="translate(-149.81 51.91) rotate(-22.62)"/><ellipse class="cls-3" cx="137.08" cy="76.39" rx="20.1" ry="42.11" transform="translate(-113.48 70.69) rotate(-37.2)"/><path class="cls-4" d="M125.07,92.67C109.4,78,105.54,56,115.07,41,96.9,49.45,89.91,73.54,99.47,95.15,109.13,117,132,128,150.59,119.8a32.87,32.87,0,0,0,15.93-15.31C153.23,108.11,137.21,104.07,125.07,92.67Z" transform="translate(-95.19 -27.73)"/><path class="cls-5" d="M181.51,47.65C172.21,30.33,152.37,22.89,137.2,31a27.88,27.88,0,0,0-9.4,8.26,1.66,1.66,0,0,1-2.16.46,6.2,6.2,0,0,0-3.21-.82c-4.18.12-7.27,4.68-6.9,10.19A12.18,12.18,0,0,0,118.09,56a1.65,1.65,0,0,1-.18,2.24c-2.32,2.26-2.93,6.47-1.26,10.55a11.62,11.62,0,0,0,6,6.41,1.68,1.68,0,0,1,1,1.72,12,12,0,0,0,.88,5.8c1.79,4.36,5.6,7.15,9.12,7a1.63,1.63,0,0,1,1.68,1.24,12.49,12.49,0,0,0,2.16,4.6c3.28,4.44,8.62,6.24,11.94,4a3.18,3.18,0,0,0,.37-.27,1.7,1.7,0,0,1,2.35.16,13.84,13.84,0,0,0,4.22,3.08c5.25,2.54,11.16,1.83,13.19-1.58a5.33,5.33,0,0,0,.2-4.88,1.67,1.67,0,0,1,.78-2.11l.28-.14C186.06,85.62,190.81,65,181.51,47.65Z" transform="translate(-95.19 -27.73)"/></svg>